<svg xmlns="http://www.w3.org/2000/svg" width="24" height="24" viewBox="0 0 24 24" fill="none">
  <path d="M21.3 3L13.1 8.4L14.4 5.2L21.3 3Z" fill="#E17726"/>
  <path d="M2.7 3L10.8 8.5L9.6 5.2L2.7 3Z" fill="#E27625"/>
  <path d="M18.6 16.5L16.5 19.8L21 21L22.2 16.6L18.6 16.5Z" fill="#E27625"/>
  <path d="M1.8 16.6L3 21L7.5 19.8L5.4 16.5L1.8 16.6Z" fill="#E27625"/>
  <path d="M7.3 11.2L6.2 13.2L10.6 13.4L10.5 8.6L7.3 11.2Z" fill="#E27625"/>
  <path d="M16.7 11.2L13.4 8.5L13.4 13.4L17.8 13.2L16.7 11.2Z" fill="#E27625"/>
  <path d="M7.5 19.8L10.3 18.5L7.9 16.6L7.5 19.8Z" fill="#E27625"/>
  <path d="M13.7 18.5L16.5 19.8L16.1 16.6L13.7 18.5Z" fill="#E27625"/>
</svg> 