<svg xmlns="http://www.w3.org/2000/svg" width="24" height="24" viewBox="0 0 24 24" fill="none">
  <path d="M22 12C22 17.5228 17.5228 22 12 22C6.47715 22 2 17.5228 2 12C2 6.47715 6.47715 2 12 2C17.5228 2 22 6.47715 22 12Z" fill="#AB9FF2"/>
  <path d="M17.5 11C17.5 13.4853 15.4853 15.5 13 15.5C10.5147 15.5 8.5 13.4853 8.5 11C8.5 8.51472 10.5147 6.5 13 6.5C15.4853 6.5 17.5 8.51472 17.5 11Z" fill="white"/>
  <path d="M13 13.5C14.3807 13.5 15.5 12.3807 15.5 11C15.5 9.61929 14.3807 8.5 13 8.5C11.6193 8.5 10.5 9.61929 10.5 11C10.5 12.3807 11.6193 13.5 13 13.5Z" fill="#535AFC"/>
</svg> 